<svg width="42" height="42" viewBox="0 0 42 42" fill="none" xmlns="http://www.w3.org/2000/svg">
<path d="M41 21C41 32.0457 32.0457 41 21 41C9.9543 41 1 32.0457 1 21C1 9.9543 9.9543 1 21 1C32.0457 1 41 9.9543 41 21Z" stroke="#2A84EE" stroke-width="2"/>
<path fill-rule="evenodd" clip-rule="evenodd" d="M14.3333 22.3334H27.6667C28.4027 22.3334 29 21.7361 29 21.0001C29 20.2641 28.4027 19.6667 27.6667 19.6667H14.3333C13.5973 19.6667 13 20.2641 13 21.0001C13 21.7361 13.5973 22.3334 14.3333 22.3334Z" fill="#2A84EE"/>
<path fill-rule="evenodd" clip-rule="evenodd" d="M22.3333 27.6667V14.3333C22.3333 13.5973 21.736 13 21 13C20.264 13 19.6667 13.5973 19.6667 14.3333V27.6667C19.6667 28.4027 20.264 29 21 29C21.736 29 22.3333 28.4027 22.3333 27.6667Z" fill="#2A84EE"/>
</svg>
