<?xml version="1.0" standalone="no"?>
<!DOCTYPE svg PUBLIC "-//W3C//DTD SVG 20010904//EN"
 "http://www.w3.org/TR/2001/REC-SVG-20010904/DTD/svg10.dtd">
<svg version="1.0" xmlns="http://www.w3.org/2000/svg"
 width="260.000000pt" height="260.000000pt" viewBox="0 0 260.000000 260.000000"
 preserveAspectRatio="xMidYMid meet">
<metadata>
Created by potrace 1.14, written by Peter Selinger 2001-2017
</metadata>
<g transform="translate(0.000000,260.000000) scale(0.100000,-0.100000)"
fill="#000000" stroke="none">
<path d="M2063 2162 c-7 -4 -40 -88 -73 -186 -79 -232 -201 -533 -252 -621
-138 -236 -295 -341 -508 -342 -200 -1 -395 101 -605 315 l-42 43 -12 -63 c-7
-35 -14 -68 -16 -75 -5 -15 98 -110 190 -175 84 -60 205 -121 300 -150 102
-32 272 -32 372 0 132 43 233 117 324 237 108 142 208 368 360 815 44 129 47
162 19 190 -21 21 -37 25 -57 12z"/>
<path d="M689 1791 c-151 -49 -256 -181 -308 -386 -17 -67 -44 -244 -66 -423
-2 -23 -7 -61 -10 -85 -3 -23 -7 -53 -10 -67 -3 -14 -7 -43 -10 -65 -2 -22 -9
-74 -15 -115 -24 -163 -24 -183 0 -208 45 -47 83 -14 94 83 3 28 10 86 16 130
6 44 13 98 16 120 4 37 11 86 19 145 2 14 6 43 9 65 15 105 46 305 55 350 45
231 170 349 357 339 79 -4 156 -34 252 -97 86 -57 129 -95 318 -278 45 -44 85
-79 91 -79 13 0 83 73 83 87 0 7 -6 16 -14 20 -8 4 -60 51 -117 103 -127 118
-112 105 -189 171 -126 107 -218 162 -325 192 -73 21 -180 20 -246 -2z"/>
<path d="M230 1708 c-32 -35 -25 -67 33 -139 l54 -66 26 60 27 60 -32 41 c-56
73 -74 80 -108 44z"/>
<path d="M2281 1070 c-135 -99 -262 -102 -413 -10 l-46 29 -36 -44 c-20 -24
-36 -46 -36 -48 0 -11 129 -85 184 -106 112 -42 233 -31 341 30 83 47 115 81
115 121 0 33 -24 69 -46 68 -5 -1 -33 -19 -63 -40z"/>
</g>
</svg>
