<svg width="74" height="55" viewBox="0 0 74 55" fill="none" xmlns="http://www.w3.org/2000/svg">
<path d="M1.25 54.3965H72.6133C72.9448 54.3965 73.2627 54.2648 73.4972 54.0304C73.7316 53.7959 73.8633 53.478 73.8633 53.1465C73.8633 52.815 73.7316 52.497 73.4972 52.2626C73.2627 52.0282 72.9448 51.8965 72.6133 51.8965H64.1094V27.1929H67.1396C67.3038 27.1929 67.4663 27.1606 67.618 27.0977C67.7697 27.0349 67.9075 26.9429 68.0236 26.8268C68.1396 26.7107 68.2317 26.5729 68.2945 26.4212C68.3573 26.2696 68.3897 26.107 68.3896 25.9429V20.0166C68.3896 20.001 68.3813 19.9881 68.3807 19.9726C68.3755 19.8413 68.3493 19.7117 68.3033 19.5886C68.2923 19.5588 68.2847 19.5292 68.2715 19.5005C68.2633 19.4824 68.2606 19.4627 68.2515 19.4449L62.4634 8.19006V1.25C62.4634 1.08584 62.4311 0.923294 62.3683 0.771631C62.3054 0.619969 62.2134 0.482166 62.0973 0.366091C61.9812 0.250015 61.8434 0.157941 61.6917 0.0951271C61.5401 0.0323129 61.3775 -1.18172e-05 61.2134 3.24071e-09H13.3086C13.1445 -1.18172e-05 12.9819 0.0323129 12.8303 0.0951271C12.6786 0.157941 12.5408 0.250015 12.4247 0.366091C12.3087 0.482166 12.2166 0.619969 12.1538 0.771631C12.091 0.923294 12.0586 1.08584 12.0586 1.25V8.19006L6.27051 19.4448C6.26135 19.4626 6.25867 19.4824 6.25043 19.5005C6.23731 19.5292 6.22968 19.5588 6.21869 19.5885C6.17266 19.7116 6.14652 19.8413 6.14124 19.9726C6.14069 19.9881 6.13233 20.0009 6.13233 20.0166V25.9428C6.13232 26.107 6.16464 26.2695 6.22746 26.4212C6.29027 26.5729 6.38234 26.7107 6.49842 26.8267C6.6145 26.9428 6.7523 27.0349 6.90396 27.0977C7.05562 27.1605 7.21817 27.1928 7.38233 27.1928H10.4121V51.8965H1.25C0.918479 51.8965 0.600537 52.0282 0.366117 52.2626C0.131696 52.497 0 52.815 0 53.1465C0 53.478 0.131696 53.7959 0.366117 54.0304C0.600537 54.2648 0.918479 54.3965 1.25 54.3965ZM26.0513 21.2666V24.6929H18.5918V21.2666H26.0513ZM36.0107 21.2666V24.6929H28.5513V21.2666H36.0107ZM45.9707 21.2666V24.6929H38.5107V21.2666H45.9707ZM55.9302 21.2666V24.6929H48.4707V21.2666H55.9302ZM41.0215 27.1929H54.4487V43.2539H41.0215V27.1929ZM32.7183 27.1929V51.8965H20.0323V27.1929H32.7183ZM61.6094 51.8965H35.2183V27.1929H38.5215V44.5039C38.5215 44.668 38.5538 44.8306 38.6166 44.9822C38.6794 45.1339 38.7715 45.2717 38.8876 45.3878C39.0036 45.5039 39.1415 45.5959 39.2931 45.6587C39.4448 45.7216 39.6073 45.7539 39.7715 45.7539H55.6987C55.8629 45.7539 56.0254 45.7216 56.1771 45.6587C56.3288 45.5959 56.4666 45.5039 56.5826 45.3878C56.6987 45.2717 56.7908 45.1339 56.8536 44.9822C56.9164 44.8306 56.9487 44.668 56.9487 44.5039V27.1929H61.6094V51.8965ZM65.8896 24.6929H58.4302V21.2666H65.8896V24.6929ZM14.5586 2.5H59.9634V7.24316H14.5586V2.5ZM14.0713 9.74316H60.4506L65.0913 18.7666H9.43064L14.0713 9.74316ZM8.63234 21.2666H16.0918V24.6929H8.63232L8.63234 21.2666ZM12.9121 27.1929H17.5322V51.8965H12.9121L12.9121 27.1929Z" fill="white"/>
</svg>
